<?xml version="1.0" encoding="utf-8"?>
<!-- Generator: Adobe Illustrator 24.0.1, SVG Export Plug-In . SVG Version: 6.00 Build 0)  -->
<svg version="1.1" id="レイヤー_1" xmlns="http://www.w3.org/2000/svg" xmlns:xlink="http://www.w3.org/1999/xlink" x="0px"
	 y="0px" viewBox="0 0 102.5922852 102.5932617" style="enable-background:new 0 0 102.5922852 102.5932617;" xml:space="preserve">
<style type="text/css">
	.st0{fill:#EFE5D3;}
</style>
<path class="st0" d="M43.0117188,102.5932617l-2.2807617-0.3056641
	c-0.5395508-0.0722656-13.2475586-1.8798828-16.0859375-11.3955078c-0.168457-0.5664063-0.3017578-1.1503906-0.3984375-1.7480469
	c-1.0639648,1.7216797-2.2734375,3.2626953-3.6113281,4.6015625c-7.5322266,7.53125-18.6699219,8.3867188-19.140625,8.4199219
	l-1.1464844,0.0791016l0.0795898-1.1464844c0.0327148-0.4707031,0.8876953-11.6083984,8.4194336-19.1396484
	c1.3378906-1.3388672,2.8793945-2.5478516,4.6010742-3.6123047c-0.5981445-0.0966797-1.1816406-0.2304688-1.7480469-0.3994141
	C2.1845703,75.1098633,0.3774414,62.4008789,0.3051758,61.8618164L0,59.5834961l1.8754883,1.3300781
	c0.1044922,0.0751953,10.5820313,7.4150391,19.3969727,6.0097656c9.0175781-1.4433594,12.1645508-4.2978516,14.6928711-6.5908203
	c0.4794922-0.4345703,0.9667969-0.9189453,1.4667969-1.4541016c0.3828125-0.4267578,1.3862305-1.8144531,1.2929688-2.9326172
	c-0.0361328-0.4326172-0.2353516-0.7792969-0.6269531-1.0908203c-0.8339844-0.5527344-1.9169922-0.6201172-2.628418-0.4785156
	c-0.96875,0.1894531-1.5932617,0.6289063-1.9291992,0.8652344c-0.4677734,0.328125-1.5043945,0.9716797-1.5043945,0.9716797
	c-3.1416016,1.984375-5.9477539,3.1357422-10.9750977,3.1357422c-8.3808594,0-16.4892578-7.0019531-16.8305664-7.2998047
	l-0.8613281-0.7529297l0.8613281-0.7529297c0.3413086-0.2983398,8.449707-7.2998047,16.8305664-7.2998047
	c5.0283203,0,7.8344727,1.1513672,10.9824219,3.1401367l0,0c0-0.0004883,1.03125,0.6396484,1.4975586,0.9682617
	c0.4975586,0.3500977,1.0756836,0.6977539,1.9282227,0.8647461c0.7119141,0.1386719,1.793457,0.0732422,2.6972656-0.5292969
	c0.3232422-0.2617188,0.5224609-0.6083984,0.5585938-1.0405273c0.0932617-1.1181641-0.9101563-2.5058594-1.3051758-2.9458008
	c-0.4882813-0.5229492-0.9760742-1.0068359-1.4365234-1.4243164c-2.5454102-2.3085938-5.6918945-5.1630859-14.7104492-6.6074219
	c-8.8120117-1.4135742-19.2924805,5.9360352-19.3974609,6.0102539l-1.875,1.3300781l0.3046875-2.2783203
	c0.0722656-0.5395508,1.8793945-13.2480469,11.3955078-16.0859375c0.565918-0.1689453,1.1494141-0.3017578,1.7480469-0.3984375
	c-1.722168-1.0644531-3.2631836-2.2739258-4.6010742-3.6123047C1.3154297,13.1030273,0.4609375,1.965332,0.4282227,1.4951172
	L0.3486328,0.3486328l1.1464844,0.0795898c0.4702148,0.0327148,11.6079102,0.887207,19.1396484,8.4194336
	c1.3378906,1.3378906,2.5473633,2.8793945,3.6123047,4.6010742c0.0961914-0.5976563,0.2294922-1.1811523,0.3979492-1.7475586
	c2.8383789-9.5161133,15.546875-11.3237305,16.0864258-11.3959961L43.0102539,0l-1.3305664,1.8754883
	c-0.0742188,0.1044922-7.4208984,10.5854492-6.0102539,19.3974609c1.4438477,9.0185547,4.2983398,12.1650391,6.5913086,14.6933594
	c0.4301758,0.4746094,0.9140625,0.9619141,1.453125,1.4663086c0.4272461,0.3823242,1.8164063,1.3974609,2.9331055,1.2924805
	c0.4321289-0.0361328,0.7788086-0.2353516,1.0908203-0.6264648c0.5527344-0.8354492,0.6181641-1.9174805,0.4785156-2.628418
	c-0.1669922-0.8535156-0.5141602-1.4311523-0.8642578-1.9287109c-0.3300781-0.4677734-0.9731445-1.5058594-0.9731445-1.5058594
	c-1.9838867-3.1401367-3.1352539-5.9462891-3.1352539-10.9746094c0-8.3803711,7.0014648-16.4887695,7.2998047-16.8300781
	l0.7529297-0.8613281l0.7529297,0.8613281c0.2978516,0.3413086,7.2998047,8.449707,7.2998047,16.8305664
	c0,5.0292969-1.1513672,7.8349609-3.1396484,10.9819336c-0.0009766,0.0009766-0.640625,1.0317383-0.9677734,1.4975586
	c-0.3515625,0.4975586-0.6982422,1.0742188-0.8662109,1.9291992c-0.1386719,0.7104492-0.0732422,1.7929688,0.5292969,2.6972656
	c0.2617188,0.3222656,0.6083984,0.5214844,1.0400391,0.5576172c1.1464844,0.1035156,2.5078125-0.9101563,2.9472656-1.3051758
	c0.5214844-0.487793,1.0058594-0.9750977,1.4248047-1.4365234c2.3085938-2.5454102,5.1621094-5.6918945,6.6064453-14.7104492
	c1.4111328-8.8120117-5.9365234-19.2929688-6.0107422-19.3974609l-1.3300781-1.875l2.2783203,0.3046875
	c0.5400391,0.0722656,13.2490234,1.8798828,16.0859375,11.3959961c0.1689453,0.5654297,0.3017578,1.1494141,0.3984375,1.7480469
	c1.0644531-1.7216797,2.2734375-3.2626953,3.6123047-4.6015625c7.5322266-7.5322266,18.6689453-8.3867188,19.1396484-8.4194336
	l1.1464844-0.0795898l-0.0791016,1.1464844c-0.0332031,0.4702148-0.8876953,11.6079102-8.4199219,19.1396484
	c-1.3378906,1.3383789-2.8798828,2.5483398-4.6005859,3.6123047c0.5976563,0.0966797,1.1816406,0.2299805,1.7480469,0.3984375
	c9.515625,2.8378906,11.3232422,15.5463867,11.3955078,16.0859375l0.3046875,2.2783203l-1.875-1.3300781
	c-0.1054688-0.0742188-10.5898438-7.4238281-19.3974609-6.0102539c-8.8984375,1.425293-13.9589844,5.8598633-14.0087891,5.9047852
	l-1.3349609-1.4897461c0.2207031-0.1982422,5.5146484-4.8662109,15.0273438-6.3896484
	c7.2421875-1.1582031,15.1621094,2.8486328,18.8193359,5.0361328c-0.9394531-3.5927734-3.4755859-10.371582-9.5029297-12.168457
	c-1.1269531-0.3364258-2.3417969-0.5068359-3.6113281-0.5068359c-0.0136719,0-0.0273438,0-0.0419922,0l-0.8691406,0.0024414
	l-0.1240234-0.8608398c-0.0214844-0.1518555-0.0488281-0.3041992-0.0791016-0.4560547l-0.1494141-0.7436523l0.6757813-0.3442383
	c2.4042969-1.2246094,4.4931641-2.7158203,6.2099609-4.4326172c5.6035156-5.6035156,7.2548828-13.6298828,7.6943359-16.652832
	c-3.0234375,0.4389648-11.0498047,2.090332-16.6533203,7.6938477c-1.7167969,1.7167969-3.2080078,3.8066406-4.4326172,6.2104492
	l-0.3447266,0.6772461l-0.7451172-0.1513672c-0.1513672-0.0307617-0.3017578-0.0576172-0.4541016-0.0795898l-0.8613281-0.1230469
	l0.0029297-0.8696289c0.0039063-1.2861328-0.1660156-2.5151367-0.5058594-3.652832
	c-1.8017578-6.0419922-8.5810547-8.5722656-12.171875-9.5068359c2.1875,3.6567383,6.2001953,11.5708008,5.0390625,18.8232422
	c-1.5380859,9.6054688-4.6132813,12.9960938-7.0849609,15.7207031c-0.4707031,0.519043-0.9941406,1.0463867-1.5693359,1.5839844
	c-0.2382813,0.2143555-2.2753906,1.9956055-4.4570313,1.824707c-0.9794922-0.0795898-1.8427734-0.5546875-2.4960938-1.3730469
	c-0.8476563-1.2661133-1.1572266-2.8325195-0.8779297-4.2602539c0.2734375-1.3920898,0.9179688-2.3061523,1.1933594-2.6962891
	c0.3066406-0.4360352,0.9082031-1.4067383,0.9082031-1.4067383c1.8398438-2.9125977,2.8349609-5.3525391,2.8349609-9.9208984
	c0-6.0761719-4.28125-12.2734375-6.0527344-14.578125c-1.7719727,2.3046875-6.0527344,8.5019531-6.0527344,14.5776367
	c0,4.5673828,0.9946289,7.0083008,2.8305664,9.9140625c0.0073242,0.0117188,0.6054688,0.9785156,0.9125977,1.4150391
	c0.2753906,0.390625,0.9204102,1.3061523,1.1923828,2.6953125c0.2802734,1.4267578-0.0292969,2.9941406-0.8276367,4.1914063
	c-0.703125,0.8876953-1.5664063,1.3623047-2.5463867,1.4418945c-2.1860352,0.1694336-4.2192383-1.6103516-4.4448242-1.8139648
	c-0.5913086-0.5527344-1.1142578-1.0795898-1.5654297-1.5776367c-2.4868164-2.7416992-5.5625-6.1323242-7.1000977-15.737793
	c-1.1606445-7.25,2.8486328-15.1616211,5.0361328-18.8193359c-3.5927734,0.9389648-10.371582,3.4755859-12.1689453,9.5024414
	c-0.340332,1.1411133-0.5107422,2.3701172-0.5063477,3.652832l0.0029297,0.8701172l-0.8613281,0.1230469
	c-0.1508789,0.0219727-0.3022461,0.0488281-0.4536133,0.0795898l-0.7451172,0.1513672l-0.3452148-0.6772461
	c-1.2255859-2.4052734-2.7167969-4.4946289-4.4326172-6.2104492C13.6171875,4.6582031,5.5908203,3.0068359,2.5678711,2.5678711
	c0.4389648,3.0229492,2.090332,11.0493164,7.6938477,16.652832c1.7158203,1.7163086,3.8051758,3.2075195,6.2099609,4.4326172
	l0.675293,0.3442383l-0.1489258,0.7436523c-0.0307617,0.152832-0.0581055,0.3061523-0.0805664,0.4589844l-0.125,0.8579102
	l-0.8671875-0.0024414c-1.2958984-0.0087891-2.5146484,0.1665039-3.652832,0.5063477
	c-6.0419922,1.8017578-8.5722656,8.5805664-9.5063477,12.1713867c3.6557617-2.1875,11.5698242-6.2006836,18.8232422-5.0385742
	c9.6054688,1.5385742,12.996582,4.6137695,15.7207031,7.0854492C37.828125,41.25,38.3554688,41.7724609,38.894043,42.3491211
	c0.2148438,0.2373047,2.0014648,2.2802734,1.824707,4.4560547c-0.0795898,0.9804688-0.5546875,1.84375-1.3735352,2.4960938
	c-1.2661133,0.8481445-2.8330078,1.15625-4.2607422,0.878418c-1.3886719-0.2724609-2.3041992-0.9174805-2.6948242-1.1928711
	c-0.4365234-0.3071289-1.4033203-0.9052734-1.4072266-0.9077148c-2.9130859-1.8408203-5.3540039-2.8354492-9.9213867-2.8354492
	c-6.0761719,0-12.2734375,4.2807617-14.578125,6.0527344c2.3046875,1.7714844,8.5019531,6.0527344,14.578125,6.0527344
	c4.5664063,0,7.0073242-0.9951172,9.9140625-2.8310547c0.0107422-0.0068359,0.9785156-0.6054688,1.4150391-0.9130859
	c0.3916016-0.2753906,1.3085938-0.9199219,2.6948242-1.1914063c1.4267578-0.2827148,2.9941406,0.0292969,4.1914063,0.8271484
	c0.8876953,0.703125,1.362793,1.5664063,1.4423828,2.546875c0.1767578,2.1767578-1.6098633,4.21875-1.8144531,4.4443359
	c-0.5478516,0.5869141-1.0751953,1.1103516-1.5771484,1.5654297c-2.7426758,2.4882813-6.1337891,5.5634766-15.7382813,7.1005859
	c-7.2514648,1.1650391-15.1616211-2.8486328-18.8193359-5.0361328c0.9394531,3.5927734,3.4755859,10.3710938,9.5024414,12.1689453
	c1.140625,0.3388672,2.3422852,0.5048828,3.6533203,0.5068359l0.8666992-0.0029297l0.1254883,0.8583984
	c0.0224609,0.1523438,0.0498047,0.3056641,0.0805664,0.4589844l0.1489258,0.7431641l-0.675293,0.34375
	c-2.4047852,1.2255859-4.4941406,2.7167969-6.2104492,4.4335938c-5.6030273,5.6035156-7.2548828,13.6298828-7.6938477,16.6523438
	c3.0229492-0.4384766,11.0498047-2.0908203,16.6533203-7.6933594c1.7163086-1.7167969,3.2075195-3.8066406,4.4326172-6.2109375
	l0.3461914-0.6796875l0.7470703,0.1542969c0.1523438,0.03125,0.3046875,0.0576172,0.456543,0.0800781l0.8544922,0.1279297
	l-0.0024414,0.8642578c-0.0039063,1.2841797,0.1665039,2.5126953,0.5068359,3.6523438
	c1.8017578,6.0419922,8.5800781,8.5722656,12.1708984,9.5068359c-2.1875-3.65625-6.199707-11.5712891-5.0380859-18.8232422
	c1.5229492-9.5136719,6.1914063-14.8056641,6.3896484-15.0263672l1.4892578,1.3349609
	c-0.0444336,0.0498047-4.4794922,5.109375-5.9042969,14.0078125c-1.4135742,8.8261719,5.9350586,19.2929688,6.0092773,19.3974609
	L43.0117188,102.5932617z M62.4886169,62.4888191c-6.6036263-7.9425697-6.6036263-9.0279961,0.0000038-16.970562
	c-7.9425697,6.6036224-9.0279961,6.6036224-16.970562-0.0000076c6.6036263,7.9425697,6.6036263,9.0279961-0.0000038,16.970562
	C53.4606247,55.8851891,54.546051,55.8851891,62.4886169,62.4888191z"/>
</svg>
