<?xml version="1.0" encoding="utf-8"?>
<!-- Generator: Adobe Illustrator 24.0.1, SVG Export Plug-In . SVG Version: 6.00 Build 0)  -->
<svg version="1.1" id="レイヤー_1" xmlns="http://www.w3.org/2000/svg" xmlns:xlink="http://www.w3.org/1999/xlink" x="0px"
	 y="0px" viewBox="0 0 161.914 139.96" style="enable-background:new 0 0 161.914 139.96;" xml:space="preserve">
<style type="text/css">
	.st0{clip-path:url(#SVGID_2_);}
	.st1{fill:#EFE5D3;}
</style>
<g>
	<defs>
		<rect id="SVGID_1_" width="161.914" height="139.96"/>
	</defs>
	<clipPath id="SVGID_2_">
		<use xlink:href="#SVGID_1_"  style="overflow:visible;"/>
	</clipPath>
	<g class="st0">
		<path class="st1" d="M80.957,131.936l-0.104-0.119c-0.064-0.074-6.456-7.524-6.456-16.576c0-2.2,0.376-4.488,1.118-6.803
			c-0.066-0.045-0.131-0.091-0.195-0.138c-0.84,0.831-1.758,1.518-2.728,2.042c-7.231,3.91-16.125-2.772-16.214-2.841l-0.25-0.192
			l0.311-0.053c0.114-0.019,11.441-2.004,16.204-8.582c4.818-6.655,5.005-10.491,5.155-13.574c0.028-0.582,0.031-1.203,0.008-1.868
			c-0.001-0.02-0.123-2.175-1.273-3.151c-0.444-0.377-0.988-0.531-1.625-0.46c-0.968,0.193-1.89,0.813-2.455,1.652
			c-0.57,0.849-0.707,1.637-0.773,2.015c-0.083,0.476-0.312,1.45-0.321,1.491c-0.679,3.012-2.883,6.608-5.895,9.62
			c-2.422,2.422-5.121,4.206-7.601,5.022c-2.483,0.817-4.52,0.6-5.733-0.615c-1.214-1.214-1.433-3.25-0.615-5.732
			c0.817-2.479,2.601-5.179,5.022-7.601c3.012-3.011,6.608-5.215,9.621-5.896c0.04-0.01,1.015-0.238,1.491-0.319
			c0.378-0.066,1.166-0.203,2.015-0.774c0.84-0.564,1.459-1.485,1.654-2.466c0.07-0.623-0.084-1.17-0.462-1.614
			c-0.978-1.151-3.132-1.271-3.153-1.272c-0.655-0.022-1.277-0.021-1.846,0.007c-3.102,0.151-6.938,0.338-13.594,5.157
			c-6.579,4.762-8.563,16.09-8.583,16.203l-0.053,0.312l-0.191-0.251c-0.068-0.089-6.75-8.982-2.841-16.214
			c0.525-0.973,1.212-1.89,2.041-2.729c-0.046-0.063-0.092-0.129-0.137-0.195c-2.313,0.742-4.602,1.118-6.803,1.118
			c-9.052,0-16.502-6.391-16.576-6.456l-0.119-0.104l0.119-0.104c0.074-0.064,7.524-6.456,16.576-6.456
			c2.2,0,4.489,0.376,6.803,1.118c0.045-0.066,0.09-0.131,0.137-0.195c-0.83-0.839-1.517-1.756-2.042-2.728
			c-3.91-7.232,2.772-16.125,2.841-16.214l0.191-0.25l0.053,0.311c0.02,0.114,2.004,11.441,8.583,16.204
			c6.655,4.818,10.492,5.005,13.574,5.155c0.581,0.028,1.203,0.031,1.868,0.008c0.02-0.001,2.175-0.123,3.152-1.273
			c0.377-0.444,0.532-0.991,0.46-1.625c-0.194-0.968-0.813-1.89-1.653-2.455c-0.849-0.57-1.636-0.707-2.015-0.773
			c-0.476-0.083-1.45-0.312-1.491-0.321c-3.011-0.679-6.608-2.883-9.621-5.895c-2.421-2.422-4.205-5.121-5.022-7.601
			c-0.818-2.483-0.6-4.519,0.615-5.733c1.215-1.214,3.25-1.431,5.733-0.615c2.479,0.817,5.179,2.601,7.601,5.022
			c3.011,3.012,5.215,6.608,5.895,9.621c0.009,0.04,0.238,1.015,0.32,1.491c0.066,0.378,0.203,1.167,0.773,2.015
			c0.564,0.84,1.486,1.459,2.466,1.654c0.623,0.07,1.17-0.085,1.614-0.461c1.15-0.977,1.272-3.132,1.273-3.154
			c0.022-0.663,0.02-1.284-0.007-1.846c-0.151-3.103-0.338-6.939-5.156-13.594c-4.764-6.581-16.09-8.563-16.204-8.583l-0.312-0.053
			l0.251-0.191c0.089-0.068,8.98-6.751,16.214-2.841c0.971,0.524,1.888,1.211,2.728,2.042c0.064-0.047,0.129-0.092,0.195-0.137
			c-0.742-2.314-1.118-4.603-1.118-6.803c0-9.052,6.391-16.502,6.456-16.576l0.104-0.119l0.104,0.119
			c0.064,0.074,6.456,7.524,6.456,16.576c0,2.199-0.377,4.488-1.119,6.803c0.066,0.045,0.132,0.09,0.196,0.137
			c0.841-0.831,1.758-1.517,2.728-2.042c7.231-3.911,16.125,2.772,16.214,2.841l0.251,0.191l-0.312,0.053
			c-0.113,0.02-11.44,2.004-16.203,8.583c-4.817,6.654-5.005,10.491-5.155,13.573c-0.028,0.575-0.03,1.197-0.009,1.87
			c0.001,0.019,0.123,2.175,1.273,3.151c0.444,0.376,0.989,0.529,1.626,0.46c0.969-0.194,1.89-0.813,2.454-1.653
			c0.57-0.848,0.707-1.636,0.773-2.015c0.082-0.476,0.311-1.45,0.32-1.491c0.68-3.012,2.883-6.608,5.896-9.621
			c2.422-2.421,5.121-4.205,7.601-5.022c2.483-0.818,4.519-0.599,5.732,0.615c2.503,2.503,0.567,8.36-4.407,13.334
			c-3.012,3.011-6.608,5.215-9.621,5.895c-0.04,0.009-1.015,0.238-1.49,0.32c-0.379,0.065-1.166,0.202-2.016,0.773
			c-0.84,0.565-1.459,1.486-1.654,2.466c-0.07,0.624,0.085,1.17,0.462,1.614c0.977,1.15,3.133,1.272,3.154,1.273
			c0.663,0.022,1.284,0.02,1.846-0.007c3.103-0.151,6.938-0.338,13.595-5.156c6.58-4.764,8.563-16.09,8.582-16.204l0.053-0.312
			l0.192,0.251c0.067,0.089,6.749,8.982,2.841,16.214c-0.525,0.971-1.212,1.888-2.042,2.728c0.047,0.064,0.093,0.13,0.138,0.196
			c2.314-0.742,4.603-1.118,6.803-1.118c9.051,0,16.502,6.391,16.576,6.456l0.119,0.104l-0.119,0.104
			c-0.074,0.064-7.525,6.456-16.576,6.456c-2.201,0-4.489-0.376-6.803-1.118c-0.045,0.066-0.091,0.132-0.138,0.195
			c0.829,0.84,1.516,1.757,2.042,2.729c3.908,7.231-2.773,16.125-2.841,16.214l-0.192,0.251l-0.053-0.312
			c-0.019-0.113-2.004-11.441-8.582-16.203c-6.657-4.819-10.493-5.006-13.575-5.156c-0.589-0.028-1.211-0.029-1.867-0.008
			c-0.02,0.001-2.176,0.123-3.152,1.273c-0.377,0.443-0.532,0.99-0.46,1.625c0.193,0.968,0.813,1.89,1.652,2.454
			c0.85,0.571,1.637,0.708,2.016,0.774c0.476,0.081,1.45,0.311,1.491,0.32c3.012,0.68,6.608,2.883,9.62,5.895
			c4.975,4.974,6.91,10.831,4.407,13.333c-1.214,1.215-3.252,1.433-5.732,0.615c-2.479-0.816-5.179-2.601-7.601-5.022
			c-3.013-3.012-5.216-6.608-5.896-9.621c-0.01-0.04-0.238-1.014-0.32-1.49c-0.066-0.378-0.203-1.166-0.773-2.015
			c-0.564-0.84-1.486-1.459-2.466-1.654c-0.617-0.067-1.169,0.085-1.614,0.462c-1.15,0.977-1.272,3.132-1.273,3.153
			c-0.021,0.671-0.02,1.292,0.008,1.846c0.151,3.104,0.339,6.94,5.156,13.595c4.763,6.578,16.09,8.563,16.203,8.582l0.312,0.053
			l-0.251,0.192c-0.089,0.068-8.978,6.75-16.214,2.841c-0.97-0.524-1.887-1.211-2.728-2.042c-0.064,0.047-0.13,0.093-0.196,0.138
			c0.742,2.315,1.119,4.604,1.119,6.803c0,9.052-6.392,16.502-6.456,16.576L80.957,131.936z M75.293,107.94l0.096,0.07
			c0.119,0.089,0.24,0.174,0.365,0.257l0.087,0.058l-0.032,0.099c-0.754,2.321-1.136,4.614-1.136,6.817
			c0,8.313,5.459,15.269,6.285,16.272c0.825-1.004,6.284-7.96,6.284-16.272c0-2.202-0.382-4.495-1.137-6.817l-0.032-0.099
			l0.087-0.058c0.125-0.083,0.247-0.168,0.366-0.257l0.096-0.07l0.084,0.084c0.844,0.85,1.769,1.548,2.747,2.076
			c6.397,3.462,14.163-1.583,15.661-2.633c-1.885-0.376-11.688-2.587-16.064-8.633c-4.865-6.72-5.055-10.602-5.206-13.721
			c-0.029-0.581-0.032-1.211-0.009-1.892c0.004-0.095,0.128-2.296,1.369-3.351c0.504-0.43,1.12-0.606,1.835-0.524
			c1.061,0.212,2.047,0.874,2.651,1.773c0.53,0.79,0.71,1.515,0.814,2.12c0.082,0.468,0.315,1.466,0.318,1.476
			c0.668,2.965,2.845,6.512,5.821,9.489c2.393,2.392,5.054,4.151,7.493,4.955c2.38,0.784,4.315,0.589,5.453-0.548
			c2.394-2.395,0.458-8.081-4.407-12.946c-2.978-2.976-6.524-5.151-9.488-5.82c-0.012-0.003-1.009-0.237-1.477-0.318
			c-0.605-0.104-1.331-0.283-2.121-0.815c-0.899-0.604-1.562-1.591-1.771-2.64c-0.082-0.726,0.095-1.343,0.522-1.847
			c1.055-1.24,3.257-1.364,3.35-1.368c0.665-0.024,1.296-0.022,1.873,0.007c3.138,0.152,7.02,0.342,13.741,5.208
			c6.046,4.376,8.257,14.179,8.633,16.064c1.05-1.498,6.091-9.266,2.633-15.661c-0.53-0.98-1.229-1.905-2.077-2.748l-0.085-0.085
			l0.072-0.096c0.089-0.117,0.174-0.239,0.257-0.364l0.058-0.087l0.099,0.032c2.32,0.754,4.613,1.136,6.817,1.136
			c8.314,0,15.27-5.458,16.272-6.284c-1.004-0.826-7.961-6.285-16.272-6.285c-2.203,0-4.496,0.382-6.817,1.136l-0.099,0.032
			l-0.058-0.087c-0.083-0.125-0.168-0.246-0.257-0.365l-0.072-0.096L119,64.233c0.849-0.844,1.548-1.768,2.077-2.748
			c3.458-6.396-1.583-14.164-2.633-15.661c-0.376,1.885-2.587,11.688-8.633,16.064c-6.722,4.866-10.603,5.055-13.722,5.207
			c-0.587,0.028-1.217,0.031-1.891,0.008c-0.095-0.005-2.297-0.128-3.352-1.369c-0.428-0.504-0.604-1.121-0.524-1.835
			c0.212-1.06,0.874-2.047,1.773-2.651c0.79-0.532,1.516-0.711,2.121-0.816c0.468-0.081,1.466-0.315,1.476-0.317
			c2.966-0.669,6.513-2.846,9.489-5.822c4.865-4.865,6.801-10.552,4.407-12.945c-1.138-1.138-3.073-1.333-5.453-0.548
			c-2.44,0.804-5.101,2.563-7.493,4.956c-2.977,2.977-5.152,6.523-5.821,9.488c-0.003,0.011-0.236,1.008-0.318,1.477
			C90.4,57.325,90.22,58.05,89.69,58.84c-0.604,0.899-1.591,1.561-2.64,1.771c-0.727,0.082-1.342-0.094-1.847-0.522
			c-1.241-1.055-1.365-3.256-1.369-3.349c-0.023-0.683-0.021-1.312,0.008-1.873c0.152-3.14,0.342-7.021,5.207-13.742
			c4.377-6.045,14.18-8.256,16.064-8.632c-1.498-1.049-9.265-6.092-15.661-2.633c-0.979,0.529-1.903,1.228-2.747,2.077l-0.084,0.084
			l-0.096-0.071c-0.119-0.089-0.241-0.174-0.366-0.257l-0.087-0.058l0.032-0.099c0.755-2.322,1.137-4.615,1.137-6.817
			c0-8.313-5.459-15.269-6.284-16.272c-0.826,1.004-6.285,7.96-6.285,16.272c0,2.203,0.382,4.496,1.136,6.817l0.032,0.099
			l-0.087,0.058c-0.125,0.083-0.247,0.168-0.365,0.257l-0.095,0.071l-0.084-0.084c-0.844-0.849-1.769-1.548-2.748-2.077
			c-6.396-3.457-14.164,1.583-15.661,2.633c1.885,0.376,11.688,2.587,16.064,8.632c4.866,6.721,5.055,10.603,5.207,13.722
			c0.029,0.589,0.031,1.219,0.008,1.891c-0.005,0.095-0.128,2.296-1.369,3.351c-0.504,0.428-1.123,0.602-1.835,0.523
			c-1.06-0.211-2.047-0.873-2.651-1.772c-0.531-0.791-0.71-1.516-0.816-2.121c-0.081-0.468-0.315-1.466-0.317-1.476
			c-0.669-2.965-2.845-6.512-5.822-9.488c-2.392-2.392-5.053-4.152-7.492-4.956c-2.378-0.783-4.316-0.589-5.453,0.548
			c-1.138,1.137-1.332,3.074-0.548,5.453c0.804,2.439,2.563,5.101,4.956,7.492c2.977,2.977,6.524,5.153,9.488,5.821
			c0.011,0.002,1.008,0.237,1.477,0.318c0.605,0.105,1.33,0.284,2.121,0.816c0.899,0.604,1.561,1.59,1.771,2.64
			c0.082,0.725-0.094,1.342-0.522,1.846c-1.055,1.241-3.256,1.364-3.349,1.369c-0.675,0.022-1.304,0.021-1.873-0.007
			c-3.139-0.153-7.021-0.342-13.742-5.208c-6.045-4.376-8.256-14.179-8.632-16.064c-1.049,1.498-6.091,9.265-2.633,15.661
			c0.53,0.981,1.229,1.905,2.077,2.748l0.084,0.084l-0.071,0.095c-0.089,0.119-0.174,0.241-0.257,0.365l-0.058,0.087l-0.099-0.032
			c-2.321-0.754-4.614-1.136-6.817-1.136c-8.313,0-15.269,5.459-16.272,6.285c1.004,0.826,7.96,6.284,16.272,6.284
			c2.204,0,4.497-0.382,6.817-1.136l0.099-0.032l0.058,0.087c0.083,0.125,0.168,0.247,0.257,0.365l0.072,0.095l-0.085,0.085
			c-0.848,0.842-1.547,1.767-2.077,2.748c-3.458,6.396,1.584,14.163,2.633,15.661c0.376-1.886,2.587-11.688,8.632-16.064
			c6.722-4.866,10.604-5.056,13.723-5.207c0.597-0.028,1.226-0.032,1.89-0.008c0.095,0.004,2.296,0.128,3.351,1.368
			c0.428,0.504,0.604,1.121,0.523,1.835c-0.211,1.061-0.873,2.047-1.772,2.651c-0.791,0.531-1.516,0.711-2.121,0.815
			c-0.468,0.081-1.466,0.314-1.476,0.317c-2.965,0.67-6.512,2.846-9.488,5.821c-2.392,2.393-4.152,5.053-4.956,7.493
			c-0.784,2.379-0.589,4.315,0.548,5.453s3.075,1.333,5.453,0.548c2.439-0.804,5.1-2.563,7.492-4.955
			c2.977-2.978,5.153-6.524,5.821-9.488c0.002-0.011,0.237-1.009,0.318-1.477c0.105-0.605,0.284-1.33,0.816-2.12
			c0.604-0.899,1.591-1.562,2.64-1.771c0.728-0.08,1.343,0.095,1.846,0.522c1.241,1.055,1.364,3.256,1.369,3.349
			c0.023,0.675,0.021,1.304-0.007,1.873c-0.153,3.139-0.342,7.021-5.208,13.741c-4.376,6.046-14.179,8.257-16.064,8.633
			c1.497,1.049,9.265,6.092,15.661,2.633c0.979-0.528,1.904-1.228,2.748-2.076L75.293,107.94z"/>
		<path class="st1" d="M80.957-12.104l82.084,82.084l-82.084,82.084L-1.127,69.98L80.957-12.104 M80.957-12.492L-1.515,69.98
			l82.472,82.472l82.472-82.472L80.957-12.492L80.957-12.492z"/>
		<path class="st1" d="M80.957-2.401l72.381,72.381l-72.381,72.381L8.576,69.98L80.957-2.401 M80.957-2.79L8.188,69.98l72.77,72.77
			l72.77-72.77L80.957-2.79L80.957-2.79z"/>
	</g>
</g>
</svg>
